<svg width="500" height="500" viewBox="0 0 500 500" fill="none" xmlns="http://www.w3.org/2000/svg">
<path d="M47.3138 187.893H143.264C146.946 188.079 150.702 190.719 150.888 194.624C151.111 200.054 150.888 205.521 150.962 210.988C151.036 237.132 150.962 263.314 150.999 289.458C120.987 289.495 90.9368 289.421 60.9248 289.495C56.4248 289.607 51.8878 289.83 47.3878 289.458C47.1648 255.652 47.2758 221.847 47.3138 188.079V187.893ZM83.6518 210.922C83.6518 229.554 83.7638 248.186 83.6148 266.818C88.3748 267.339 93.2468 267.487 97.9698 266.632C97.7098 259.306 97.9698 251.942 97.8208 244.578C103.883 243.946 109.982 244.429 116.081 244.243C116.007 240.97 116.007 237.735 116.081 234.462C110.019 234.425 103.957 234.536 97.8578 234.388C97.7838 230 97.8208 225.574 97.8578 221.148C105.073 221.148 112.325 221.111 119.54 221.185C119.577 217.726 119.54 214.268 119.503 210.809C107.565 210.959 95.6268 210.848 83.6518 210.922Z" fill="#FF6902"/>
<path d="M25 201.513C32.289 196.901 39.727 192.55 47.128 188.125C47.091 221.931 46.979 255.736 47.202 289.504C43.781 291.512 40.433 293.595 37.012 295.603C32.996 298.02 29.016 300.475 25 302.855V201.513Z" fill="#FF9548"/>
<path d="M83.5742 210.922C95.5492 210.848 107.487 210.959 119.462 210.848C119.462 214.307 119.499 217.765 119.499 221.224C112.284 221.187 105.032 221.187 97.8172 221.187C97.7802 225.575 97.7802 230.001 97.8172 234.427C103.879 234.539 109.978 234.464 116.04 234.501C115.966 237.774 115.966 241.009 116.04 244.282C109.941 244.468 103.842 243.984 97.7802 244.617C97.9292 251.943 97.6682 259.307 97.9292 266.671C93.2062 267.526 88.3342 267.378 83.5742 266.857C83.6862 248.186 83.5742 229.554 83.5742 210.922Z" fill="#FFFEFE"/>
<path d="M150.817 210.914C154.127 210.877 157.474 210.877 160.784 210.877C160.71 244.608 160.784 278.339 160.747 312.108H43.8211C40.7711 311.625 37.7961 309.616 37.2011 306.455C36.6061 302.848 37.0521 299.129 37.0151 295.484C40.4361 293.476 43.8211 291.393 47.2051 289.385C51.7051 289.757 56.2421 289.534 60.7421 289.422C90.7541 289.348 120.804 289.422 150.816 289.385C150.817 263.24 150.854 237.058 150.817 210.914Z" fill="#933B00"/>
<path d="M285.22 215.571C288.344 213.228 293.104 216.873 291.803 220.48C291.096 223.864 285.853 224.757 283.993 221.856C282.394 219.922 283.063 216.761 285.22 215.571Z" fill="white"/>
<path d="M193.101 218.509C201.246 218.546 209.39 218.472 217.535 218.583C217.535 220.48 217.535 222.414 217.572 224.31C211.845 224.384 206.08 224.161 200.353 224.384C200.502 228.363 200.353 232.305 200.502 236.285C205.374 236.173 210.209 236.248 215.08 236.248C215.08 238.182 215.08 240.079 215.117 242.012C210.208 242.049 205.299 242.012 200.39 242.049C200.464 247.739 200.316 253.429 200.502 259.119C198.01 259.193 195.556 259.193 193.064 259.156C193.139 245.583 193.101 232.046 193.101 218.509Z" fill="white"/>
<path d="M376.559 223.753C382.993 217.245 394.708 215.348 401.848 221.67C404.712 224.273 405.121 228.55 404.154 232.083C403.261 234.798 400.621 236.323 398.055 237.252C401.142 238.368 404.191 240.302 405.493 243.426C406.534 247.926 406.051 253.467 402.034 256.405C394.41 262.244 382.361 260.979 375.927 253.876C377.34 252.5 378.753 251.124 380.167 249.711C382.919 252.277 386.34 254.471 390.245 254.323C393.443 254.509 397.385 253.17 398.315 249.786C398.687 247.331 398.873 244.356 396.827 242.534C394.038 239.931 389.947 240.414 386.451 240.34C386.414 238.629 386.414 236.919 386.414 235.208C389.947 234.985 394.707 235.766 396.79 232.158C397.831 229.48 397.571 225.464 394.521 224.199C389.724 222.042 384.219 224.162 380.649 227.695C379.273 226.505 377.86 225.166 376.559 223.753Z" fill="white"/>
<path d="M418.133 223.381C422.968 219.29 429.439 218.1 435.575 217.765C435.575 219.699 435.612 221.633 435.612 223.567C430.852 224.05 425.608 224.757 422.112 228.402C419.955 230.485 419.062 233.385 418.244 236.175C421.07 234.13 424.157 232.084 427.839 232.307C432.971 231.786 438.438 234.947 439.703 240.117C440.893 245.472 440.707 251.869 436.653 255.997C430.405 262.059 418.616 261.278 413.781 253.877C410.731 249.451 410.992 243.873 411.215 238.778C411.402 233.013 413.633 227.137 418.133 223.381ZM418.286 242.496C418.398 245.508 418.435 248.707 420.108 251.31C422.6 254.992 428.773 255.252 431.562 251.756C433.459 249.116 433.05 245.62 432.864 242.57C432.715 240.339 430.967 238.33 428.736 237.996C424.645 237.029 420.777 239.447 418.286 242.496Z" fill="white"/>
<path d="M454.732 218.62C459.306 217.393 464.476 217.504 468.753 219.773C472.509 221.856 474.815 226.058 474.926 230.298C475.038 235.988 475 241.678 474.963 247.368C474.926 252.463 471.579 257.409 466.707 258.971C460.385 261.054 452.166 260.161 447.963 254.508C444.839 250.231 445.471 244.69 445.434 239.706C445.546 235.28 444.951 230.706 446.364 226.429C447.554 222.637 450.938 219.736 454.732 218.62ZM457.372 223.976C454.397 225.017 452.872 228.253 452.872 231.265C452.835 236.769 452.723 242.31 452.909 247.814C453.207 252.537 458.487 255.289 462.764 253.913C465.999 253.058 467.822 249.525 467.747 246.363C467.747 241.64 467.71 236.954 467.747 232.268C467.821 229.479 467.04 226.355 464.66 224.644C462.504 223.306 459.715 223.046 457.372 223.976Z" fill="white"/>
<path d="M256.584 229.406C262.72 226.096 270.53 227.435 276.146 231.265C274.993 232.641 273.877 234.054 272.725 235.43C269.452 233.496 265.361 232.046 261.642 233.496C259.634 234.128 259.225 237.141 260.935 238.368C265.137 241.38 271.199 241.194 274.77 245.285C278.006 249.636 276.406 257 270.939 258.711C264.394 261.277 256.621 260.013 250.968 255.847C252.195 254.434 253.385 252.983 254.575 251.533C258.071 254.136 262.831 255.475 267.071 253.988C270.232 253.058 269.637 248.372 266.699 247.591C262.497 245.508 257.216 245.136 254.054 241.343C251.266 237.624 252.419 231.6 256.584 229.406Z" fill="white"/>
<path d="M306.939 228.029C310.249 227.285 313.782 227.36 317.017 228.327C322.075 229.852 325.571 234.835 325.905 240.005C326.388 245.732 326.277 252.501 321.591 256.592C315.306 261.687 304.335 261.278 299.426 254.398C296.414 249.786 296.6 243.948 297.232 238.704C297.977 233.608 301.844 229.108 306.939 228.029ZM308.613 233.496C303.63 235.541 304.039 241.864 304.225 246.326C304.039 250.231 306.791 254.768 311.142 254.471C314.824 254.917 318.134 251.831 318.468 248.26C318.765 244.578 319.175 240.636 317.873 237.066C316.534 233.496 311.997 232.232 308.613 233.496Z" fill="white"/>
<path d="M338.328 231.377C343.423 225.166 355.807 226.356 357.369 235.059C358.076 243.055 357.369 251.125 357.704 259.158C355.249 259.158 352.795 259.158 350.34 259.121C350.377 252.315 350.377 245.547 350.377 238.741C350.377 236.807 349.968 234.353 347.96 233.497C344.613 231.935 340.968 234.166 338.923 236.807C339.109 244.245 338.923 251.683 339.035 259.121C336.543 259.158 334.089 259.121 331.597 259.047C331.783 248.783 331.634 238.481 331.671 228.217C334.274 228.55 339.257 226.839 338.328 231.377Z" fill="white"/>
<path d="M220.808 228.29C223.263 228.29 225.717 228.29 228.172 228.327C228.06 235.579 228.098 242.831 228.135 250.083C227.8 252.426 229.771 254.657 232.151 254.509C235.052 254.621 237.469 252.761 239.329 250.716C239.366 243.241 239.292 235.766 239.366 228.291C241.783 228.254 244.201 228.254 246.618 228.254C246.618 238.556 246.544 248.857 246.655 259.159C244.572 259.196 242.453 259.196 240.37 259.122C240.296 258.304 240.11 256.705 240.035 255.886C236.539 259.531 230.886 261.204 226.126 259.01C222.965 257.708 220.919 254.398 220.919 251.014C220.622 243.463 220.808 235.877 220.808 228.29Z" fill="white"/>
<path d="M279.53 228.318C283.509 228.058 287.526 228.206 291.505 228.244C291.468 238.546 291.505 248.847 291.468 259.149C289.014 259.149 286.596 259.149 284.142 259.112C284.328 250.633 284.179 242.153 284.254 233.637C282.692 233.637 281.13 233.674 279.568 233.674C279.568 231.889 279.568 230.103 279.53 228.318Z" fill="white"/>
</svg>
